<svg id="visual" viewBox="0 0 900 300" width="900" height="300" xmlns="http://www.w3.org/2000/svg" xmlns:xlink="http://www.w3.org/1999/xlink" version="1.1"><rect x="0" y="0" width="900" height="300" fill="#dd3f31"></rect><path d="M0 71L25 70C50 69 100 67 150 65.7C200 64.3 250 63.7 300 68C350 72.3 400 81.7 450 83.2C500 84.7 550 78.3 600 74.7C650 71 700 70 750 69.2C800 68.3 850 67.7 875 67.3L900 67L900 0L875 0C850 0 800 0 750 0C700 0 650 0 600 0C550 0 500 0 450 0C400 0 350 0 300 0C250 0 200 0 150 0C100 0 50 0 25 0L0 0Z" fill="#0f0f10"></path><path d="M0 48L25 49.3C50 50.7 100 53.3 150 52.8C200 52.3 250 48.7 300 51C350 53.3 400 61.7 450 63.3C500 65 550 60 600 59.2C650 58.3 700 61.7 750 62.3C800 63 850 61 875 60L900 59L900 0L875 0C850 0 800 0 750 0C700 0 650 0 600 0C550 0 500 0 450 0C400 0 350 0 300 0C250 0 200 0 150 0C100 0 50 0 25 0L0 0Z" fill="#0f0f10"></path><path d="M0 52L25 50C50 48 100 44 150 42.2C200 40.3 250 40.7 300 41.2C350 41.7 400 42.3 450 42.8C500 43.3 550 43.7 600 41.8C650 40 700 36 750 35.5C800 35 850 38 875 39.5L900 41L900 0L875 0C850 0 800 0 750 0C700 0 650 0 600 0C550 0 500 0 450 0C400 0 350 0 300 0C250 0 200 0 150 0C100 0 50 0 25 0L0 0Z" fill="#0f0f10"></path><path d="M0 20L25 20.7C50 21.3 100 22.7 150 24.2C200 25.7 250 27.3 300 25.7C350 24 400 19 450 17.8C500 16.7 550 19.3 600 19.7C650 20 700 18 750 19.2C800 20.3 850 24.7 875 26.8L900 29L900 0L875 0C850 0 800 0 750 0C700 0 650 0 600 0C550 0 500 0 450 0C400 0 350 0 300 0C250 0 200 0 150 0C100 0 50 0 25 0L0 0Z" fill="#0f0f10"></path></svg>